# xmcd
#
# Track frame offsets:
#	150
#	26833
#	55418
#	83635
#	112208
#	136405
#	164900
#	194595
#	224558
#
# Disc length: 3324 seconds
#
# Revision: 1
# Processed by: cddbd v1.5.1PL0 Copyright (c) Steve Scherf et al.
# Submitted via: CDex 1.50Beta5
#
DISCID=910cfa09
DTITLE=一般編 1 - 全日本吹奏楽2002
DYEAR=1900
DGENRE=Classical
TTITLE0=倉敷市民吹奏楽団グリーンハーモニー/「スペイン狂詩曲」より
TTITLE1=諫早吹奏楽団/歌劇「トスカ」より
TTITLE2=鏡野吹奏楽団/この河は生命を湛える〜四万十逍遥 源流から河口へ〜
TTITLE3=秋田吹奏楽団/交響組曲第7番「BR」より
TTITLE4=土気シビックウインドオーケストラ/吹奏楽のためのラメント
TTITLE5=土気シビックウインドオーケストラ/ローザのための楽章
TTITLE6=浜松交響吹奏楽団/「おほなゐ」〜1995.1.17.阪神淡路大震災へのオマージュ〜 第1楽章「瓦解」 第3楽章「復興そして祈り」
TTITLE7=小松市民吹奏楽団/「ミシシッピ組曲」より
TTITLE8=川口市・アンサンブルリベルテ吹奏楽団/交響詩「ローマの祭」より
EXTD=
EXTT0=
EXTT1=
EXTT2=
EXTT3=
EXTT4=
EXTT5=
EXTT6=
EXTT7=
EXTT8=
PLAYORDER=
